<svg width="1024" height="1024" viewBox="0 0 1024 1024"
  xmlns="http://www.w3.org/2000/svg">
  <rect width="1024" height="1024" rx="200" fill="white" />
  <path
    d="M511.366 781.219C505.32 781.219 498.897 776.496 492.097 767.05C485.296 757.605 478.684 747.592 472.261 737.014L268.804 407.742C255.581 385.829 248.969 371.471 248.969 364.671C248.969 357.114 251.614 352.014 256.903 349.369C262.57 346.346 271.827 344.835 284.673 344.835H738.625C751.093 344.835 760.161 346.346 765.828 349.369C771.496 352.014 774.329 357.114 774.329 364.671C774.329 368.449 772.44 373.927 768.662 381.106C765.261 387.907 760.35 396.785 753.927 407.742L550.47 737.014C544.047 747.592 537.435 757.605 530.634 767.05C524.212 776.496 517.789 781.219 511.366 781.219ZM511.366 655.971C516.655 655.971 521.756 651.815 526.667 643.503L653.049 437.779C657.205 431.356 659.283 426.444 659.283 423.044C659.283 419.266 656.827 416.81 651.915 415.677C649.27 414.921 645.303 414.543 640.014 414.543C635.102 414.543 628.868 414.543 621.312 414.543H401.42C393.863 414.543 387.44 414.732 382.151 415.11C377.239 415.11 373.65 415.299 371.383 415.677C366.093 416.054 363.449 418.51 363.449 423.044C363.449 426.444 365.527 431.356 369.683 437.779L496.631 643.503C501.542 651.815 506.454 655.971 511.366 655.971Z"
    fill="black" />
</svg>
